<svg id="browser" xmlns="http://www.w3.org/2000/svg" width="36.593" height="34.304" viewBox="0 0 36.593 34.304">
  <defs>
    <style>
      .cls-1 {
        fill: #fff;
      }
    </style>
  </defs>
  <path id="Path_9" data-name="Path 9" class="cls-1" d="M67.588,213.692h-24.3A3.291,3.291,0,0,1,40,210.4v-17.3a1.144,1.144,0,1,1,2.287,0v17.3a1,1,0,0,0,1,1h24.3a1,1,0,0,0,1-1v-17.3a1.144,1.144,0,1,1,2.287,0v17.3A3.291,3.291,0,0,1,67.588,213.692Z" transform="translate(-37.141 -179.388)"/>
  <path id="Path_10" data-name="Path 10" class="cls-1" d="M35.45,33.738a1.14,1.14,0,0,1-.809-.335L20.419,19.181a3.005,3.005,0,0,0-4.245,0L1.952,33.4A1.144,1.144,0,0,1,.335,31.786L14.557,17.564a5.3,5.3,0,0,1,7.479,0L36.258,31.785a1.144,1.144,0,0,1-.809,1.952Z" transform="translate(0 -16.017)"/>
  <path id="Path_11" data-name="Path 11" class="cls-1" d="M186.292,302.849h-9.148A1.144,1.144,0,0,1,176,301.705V291.557a3.578,3.578,0,0,1,3.574-3.574h4.288a3.578,3.578,0,0,1,3.574,3.574v10.149A1.144,1.144,0,0,1,186.292,302.849Zm-8-2.287h6.861v-9.005a1.288,1.288,0,0,0-1.286-1.286h-4.288a1.288,1.288,0,0,0-1.286,1.286Z" transform="translate(-163.421 -268.545)"/>
</svg>
