<svg xmlns="http://www.w3.org/2000/svg" width="37.391" height="25.706" viewBox="0 0 37.391 25.706">
  <defs>
    <style>
      .cls-1 {
        fill: #fff;
      }
    </style>
  </defs>
  <g id="credit-card" transform="translate(-0.211 -2.54)">
    <path id="Path_12" data-name="Path 12" class="cls-1" d="M33.3,80H4.09A4.094,4.094,0,0,0,0,84.09v17.527a4.094,4.094,0,0,0,4.09,4.09H33.3a4.094,4.094,0,0,0,4.09-4.09V84.09A4.094,4.094,0,0,0,33.3,80ZM4.09,82.337H33.3a1.755,1.755,0,0,1,1.753,1.753v2.337H2.337V84.09A1.755,1.755,0,0,1,4.09,82.337ZM33.3,103.369H4.09a1.755,1.755,0,0,1-1.753-1.753V88.763H35.054v12.853A1.755,1.755,0,0,1,33.3,103.369Z" transform="translate(0.211 -77.46)"/>
    <path id="Path_13" data-name="Path 13" class="cls-1" d="M82.337,307.505H81.168A1.169,1.169,0,0,1,80,306.337v-1.169A1.169,1.169,0,0,1,81.168,304h1.168a1.169,1.169,0,0,1,1.168,1.168v1.169A1.169,1.169,0,0,1,82.337,307.505Z" transform="translate(-73.947 -285.102)"/>
  </g>
</svg>
