<svg xmlns="http://www.w3.org/2000/svg" width="31.293" height="31.293" viewBox="0 0 31.293 31.293">
  <defs>
    <style>
      .cls-1 {
        fill: #fff;
        stroke: #fff;
      }
    </style>
  </defs>
  <g id="settings" transform="translate(0.5 2.966)">
    <path id="Path_14" data-name="Path 14" class="cls-1" d="M16.1,30.293H14.2A2.792,2.792,0,0,1,11.407,27.5v-.643a12.229,12.229,0,0,1-1.9-.788l-.456.456a2.789,2.789,0,0,1-3.944,0L3.764,25.185a2.789,2.789,0,0,1,0-3.944l.455-.455a12.231,12.231,0,0,1-.788-1.9H2.789A2.792,2.792,0,0,1,0,16.1V14.2a2.792,2.792,0,0,1,2.789-2.789h.643a12.233,12.233,0,0,1,.788-1.9l-.456-.456a2.789,2.789,0,0,1,0-3.944L5.109,3.764a2.788,2.788,0,0,1,3.944,0l.455.455a12.241,12.241,0,0,1,1.9-.788V2.789A2.792,2.792,0,0,1,14.2,0h1.9a2.792,2.792,0,0,1,2.789,2.789v.643a12.23,12.23,0,0,1,1.9.788l.456-.456a2.789,2.789,0,0,1,3.944,0l1.344,1.344a2.789,2.789,0,0,1,0,3.944l-.455.455a12.23,12.23,0,0,1,.788,1.9H27.5A2.792,2.792,0,0,1,30.293,14.2v1.9A2.792,2.792,0,0,1,27.5,18.886h-.643a12.233,12.233,0,0,1-.788,1.9l.456.456a2.789,2.789,0,0,1,0,3.944l-1.344,1.344a2.788,2.788,0,0,1-3.944,0l-.455-.455a12.242,12.242,0,0,1-1.9.788V27.5A2.792,2.792,0,0,1,16.1,30.293ZM9.8,24.209a10.461,10.461,0,0,0,2.712,1.126.887.887,0,0,1,.666.859V27.5A1.015,1.015,0,0,0,14.2,28.518h1.9A1.015,1.015,0,0,0,17.111,27.5v-1.31a.887.887,0,0,1,.666-.859,10.461,10.461,0,0,0,2.712-1.126.887.887,0,0,1,1.079.136l.928.928a1.013,1.013,0,0,0,1.433,0l1.345-1.345a1.014,1.014,0,0,0,0-1.433l-.929-.929a.888.888,0,0,1-.136-1.079,10.46,10.46,0,0,0,1.126-2.712.887.887,0,0,1,.859-.666H27.5A1.015,1.015,0,0,0,28.518,16.1V14.2A1.015,1.015,0,0,0,27.5,13.182h-1.31a.888.888,0,0,1-.859-.666,10.462,10.462,0,0,0-1.126-2.712.888.888,0,0,1,.136-1.079l.928-.928a1.013,1.013,0,0,0,0-1.433L23.93,5.02a1.013,1.013,0,0,0-1.433,0l-.929.929a.887.887,0,0,1-1.079.136,10.461,10.461,0,0,0-2.712-1.126.887.887,0,0,1-.666-.859V2.789A1.015,1.015,0,0,0,16.1,1.775H14.2a1.015,1.015,0,0,0-1.014,1.014V4.1a.887.887,0,0,1-.666.859A10.461,10.461,0,0,0,9.8,6.084a.888.888,0,0,1-1.079-.136L7.8,5.019a1.013,1.013,0,0,0-1.433,0L5.019,6.364a1.014,1.014,0,0,0,0,1.433l.929.929A.888.888,0,0,1,6.084,9.8a10.46,10.46,0,0,0-1.126,2.712.887.887,0,0,1-.859.666H2.789A1.015,1.015,0,0,0,1.775,14.2v1.9a1.015,1.015,0,0,0,1.014,1.014H4.1a.888.888,0,0,1,.859.666,10.462,10.462,0,0,0,1.126,2.712.888.888,0,0,1-.136,1.079l-.928.928a1.013,1.013,0,0,0,0,1.433l1.345,1.345a1.013,1.013,0,0,0,1.433,0l.929-.929A.892.892,0,0,1,9.8,24.209Z" transform="translate(0 -2.466)"/>
    <path id="Path_15" data-name="Path 15" class="cls-1" d="M151.191,157.782a6.591,6.591,0,1,1,6.591-6.591A6.6,6.6,0,0,1,151.191,157.782Zm0-11.407a4.816,4.816,0,1,0,4.816,4.816A4.822,4.822,0,0,0,151.191,146.375Z" transform="translate(-136.044 -138.51)"/>
  </g>
</svg>
