<?xml version="1.0" encoding="utf-8"?>
<!-- Generator: Adobe Illustrator 21.1.0, SVG Export Plug-In . SVG Version: 6.00 Build 0)  -->
<svg version="1.1" id="Capa_1" xmlns="http://www.w3.org/2000/svg" xmlns:xlink="http://www.w3.org/1999/xlink" x="0px" y="0px"
	 viewBox="0 0 512 512" style="enable-background:new 0 0 512 512;" xml:space="preserve">
<style type="text/css">
	.st0{display:none;}
	.st1{display:inline;}
	.st2{fill:#FFFFFF;}
</style>
<g id="ybwYBe.tif" class="st0">
	<g class="st1">
		<path class="st2" d="M1,437c0-68.3,0-136.7,0-205c0.3-0.9,0.7-1.8,0.9-2.8c3-20.8,12.7-37.9,28.2-51.9
			C86.5,126.2,142.7,74.9,199.3,24.1c7.4-6.7,16.5-11.9,25.5-16.3c7.2-3.5,15.5-4.7,23.3-6.9c6,0,12,0,18,0c0.6,0.3,1.2,0.7,1.8,0.8
			c18.6,2.4,34.5,10.6,48.3,23.1C372.6,76.3,429.2,127.7,485.8,179c10.7,9.7,18.4,21.4,22.8,35.2c1.9,5.8,2.9,11.9,4.4,17.8
			c0,67,0,134,0,201c-0.3,1.6-0.8,3.2-1,4.8c-5.8,32.7-22.5,57-54,69.8c-6.4,2.6-13.3,3.7-20,5.4c-120.3,0-240.7,0-361,0
			c-0.9-0.3-1.9-0.7-2.8-0.9c-34.7-5.2-62.7-31-70.9-65.1C2.5,443.7,1.8,440.4,1,437z M255.7,463.9c56,0,112,0,168,0
			c20.1,0,35.4-14.1,35.4-33.5c0.2-62.3,0.1-124.6,0-187c0-11.6-5-21.5-13.3-29.2c-55.2-50.4-110.9-100.4-166-151.1
			c-15.3-14.1-36.7-10-48,0.3c-16.8,15.2-33.6,30.5-50.3,45.7c-39.2,35.6-78.4,71.3-117.8,106.7c-5.2,4.7-9.2,9.7-10.3,16.5
			c-0.7,4.4-1.1,8.9-1.1,13.4c-0.1,60.3-0.1,120.6,0,181c0,22.8,14.4,37.2,37.1,37.2C144.7,463.9,200.2,463.9,255.7,463.9z"/>
	</g>
</g>
<g>
	<path class="st2" d="M413.3,511.1H98.7c-54.2,0-98.3-44.1-98.3-98.3V98.3C0.5,44.1,44.6,0,98.7,0h314.5c54.2,0,98.3,44.1,98.3,98.3
		v314.5C511.5,467,467.4,511.1,413.3,511.1z M98.7,39.3c-32.5,0-59,26.5-59,59v314.5c0,32.5,26.5,59,59,59h314.5
		c32.5,0,59-26.5,59-59V98.3c0-32.5-26.5-59-59-59H98.7z"/>
</g>
<g>
	<path class="st2" d="M373.9,275.2H138.1c-10.9,0-19.7-8.8-19.7-19.7c0-10.9,8.8-19.7,19.7-19.7h235.9c10.9,0,19.7,8.8,19.7,19.7
		C393.6,266.4,384.8,275.2,373.9,275.2z"/>
</g>
<g>
	<path class="st2" d="M373.9,196.6H138.1c-10.9,0-19.7-8.8-19.7-19.7s8.8-19.7,19.7-19.7h235.9c10.9,0,19.7,8.8,19.7,19.7
		S384.8,196.6,373.9,196.6z"/>
</g>
<g>
	<path class="st2" d="M373.9,353.8H138.1c-10.9,0-19.7-8.8-19.7-19.7c0-10.9,8.8-19.7,19.7-19.7h235.9c10.9,0,19.7,8.8,19.7,19.7
		C393.6,345,384.8,353.8,373.9,353.8z"/>
</g>
</svg>
